# xmcd
#
# Track frame offsets:
#	150
#	19300
#	35340
#	55475
#	69625
#	86315
#	102460
#	115997
#	132205
#	147080
#	164425
#	183897
#	199500
#	225087
#	242295
#	258950
#	278207
#	298062
#	315340
#	331250
#
# Disc length: 4653 seconds
#
# Revision: 2
# Processed by: cddbd v1.5.2PL0 Copyright (c) Steve Scherf et al.
# Submitted via: EasyCDDAExtractor 15.3.0.1
#
DISCID=10122b14
DTITLE=Yolandita Monge - 20 De Coleccion
DYEAR=1993
DGENRE=Latin
TTITLE0=Cambiando La Rutina De Vivir
TTITLE1=Como Lo Hago Yo
TTITLE2=Espacio Negativo
TTITLE3=Que Te Hice
TTITLE4=Si
TTITLE5=Perdoname Otra Vez
TTITLE6=Siempre Tu
TTITLE7=La Distancia
TTITLE8=Sueños
TTITLE9=Senor... Del Pasado
TTITLE10=El Amor
TTITLE11=Luz De Luna
TTITLE12=Laberinto De Amor
TTITLE13=Te Agradezco
TTITLE14=Eres Magico
TTITLE15=Quitame Ese Hombre Del Corazon
TTITLE16=Cuando Termina Un Amor
TTITLE17=Todo A Pulmon
TTITLE18=Contra La Pared
TTITLE19=Esta Guerra La Perdere
EXTD=YEAR: 1993 ID3G: 86
EXTT0=
EXTT1=
EXTT2=
EXTT3=
EXTT4=
EXTT5=
EXTT6=
EXTT7=
EXTT8=
EXTT9=
EXTT10=
EXTT11=
EXTT12=
EXTT13=
EXTT14=
EXTT15=
EXTT16=
EXTT17=
EXTT18=
EXTT19=
PLAYORDER=
